<?xml version="1.0" encoding="utf-8"?>
<!-- Generator: Adobe Illustrator 23.0.4, SVG Export Plug-In . SVG Version: 6.00 Build 0)  -->
<svg version="1.1" id="Layer_1" xmlns="http://www.w3.org/2000/svg" xmlns:xlink="http://www.w3.org/1999/xlink" x="0px" y="0px"
	 viewBox="0 0 162 162" style="enable-background:new 0 0 162 162;" xml:space="preserve">
<style type="text/css">
	.st0{fill:#BED0EA;}
	.st1{fill:#033E8C;}
	.st2{fill:url(#SVGID_1_);}
	.st3{fill:url(#SVGID_2_);}
	.st4{fill:url(#SVGID_3_);}
	.st5{fill:url(#SVGID_4_);}
</style>
<g>
	
		<rect x="553.4" y="-70.6" transform="matrix(0.7071 -0.7071 0.7071 0.7071 193.5693 415.1689)" class="st0" width="89" height="89"/>
</g>
<g>
	
		<rect x="580.1" y="12.3" transform="matrix(0.7071 -0.7071 0.7071 0.7071 154.1864 430.8159)" class="st1" width="34" height="34"/>
</g>
<g>
	
		<rect x="612.6" y="-53.6" transform="matrix(0.7071 -0.7071 0.7071 0.7071 205.9268 445.0001)" class="st1" width="55" height="55"/>
</g>
<g>
	<rect x="488.9" y="155.9" class="st1" width="34" height="34"/>
</g>
<g>
	<g>
		<radialGradient id="SVGID_1_" cx="81.0161" cy="80.986" r="55.9018" gradientUnits="userSpaceOnUse">
			<stop  offset="0" style="stop-color:#15385E"/>
			<stop  offset="1" style="stop-color:#033E8C"/>
		</radialGradient>
		<path class="st2" d="M136.9,136.9l-108.1,0c-2.1,0-3.7-1.7-3.7-3.7l0-108.1l108.1,0c2.1,0,3.7,1.7,3.7,3.7L136.9,136.9z"/>
	</g>
	<g>
		<g>
			<g>
				<path class="st0" d="M98,98l-85.3,0C10.7,98,9,96.3,9,94.3l0-81.6C9,10.7,10.7,9,12.7,9l81.6,0c2.1,0,3.7,1.7,3.7,3.7L98,98z"/>
			</g>
			<g>
				<linearGradient id="SVGID_2_" gradientUnits="userSpaceOnUse" x1="49.3649" y1="23.3592" x2="90.6672" y2="94.8969">
					<stop  offset="0.3254" style="stop-color:#BED0EA"/>
					<stop  offset="0.4238" style="stop-color:#BACDE8"/>
					<stop  offset="0.5226" style="stop-color:#AEC3E2"/>
					<stop  offset="0.6217" style="stop-color:#9AB4D8"/>
					<stop  offset="0.7211" style="stop-color:#7D9ECA"/>
					<stop  offset="0.8207" style="stop-color:#5981B7"/>
					<stop  offset="0.919" style="stop-color:#2D5FA1"/>
					<stop  offset="1" style="stop-color:#033E8C"/>
				</linearGradient>
				<rect x="43" y="27" class="st3" width="55" height="66"/>
			</g>
			<g>
				<rect x="43" y="64" class="st0" width="75" height="34"/>
			</g>
		</g>
		<g>
			<g>
				<path class="st0" d="M64,64l85.3,0c2.1,0,3.7,1.7,3.7,3.7l0,81.6c0,2.1-1.7,3.7-3.7,3.7l-81.6,0c-2.1,0-3.7-1.7-3.7-3.7L64,64z"
					/>
			</g>
			<g>
				
					<linearGradient id="SVGID_3_" gradientUnits="userSpaceOnUse" x1="184.3006" y1="286.3357" x2="225.6096" y2="357.885" gradientTransform="matrix(-1 0 0 -1 296.9576 424.9544)">
					<stop  offset="0.3254" style="stop-color:#BED0EA"/>
					<stop  offset="0.4238" style="stop-color:#BACDE8"/>
					<stop  offset="0.5226" style="stop-color:#AEC3E2"/>
					<stop  offset="0.6217" style="stop-color:#9AB4D8"/>
					<stop  offset="0.7211" style="stop-color:#7D9ECA"/>
					<stop  offset="0.8207" style="stop-color:#5981B7"/>
					<stop  offset="0.919" style="stop-color:#2D5FA1"/>
					<stop  offset="1" style="stop-color:#033E8C"/>
				</linearGradient>
				<rect x="64" y="69" class="st4" width="55" height="66"/>
			</g>
			<g>
				<rect x="44" y="64" class="st0" width="75" height="34"/>
			</g>
		</g>
	</g>
</g>
<g>
	<rect x="495.9" y="96.9" class="st1" width="34" height="34"/>
</g>
<g>
	<radialGradient id="SVGID_4_" cx="424.1198" cy="290.2022" r="55.914" gradientUnits="userSpaceOnUse">
		<stop  offset="0" style="stop-color:#15385E"/>
		<stop  offset="1" style="stop-color:#033E8C"/>
	</radialGradient>
	<rect x="368.2" y="234.3" class="st5" width="111.8" height="111.8"/>
</g>
<g>
	<rect x="352.9" y="225.3" class="st1" width="23.1" height="23.1"/>
</g>
<g>
	<rect x="360.3" y="125" class="st1" width="15.8" height="15.8"/>
</g>
</svg>
