<svg id="Layer_1" data-name="Layer 1" xmlns="http://www.w3.org/2000/svg" xmlns:xlink="http://www.w3.org/1999/xlink" viewBox="0 0 162 162"><defs><style>.cls-1{fill:url(#radial-gradient);}.cls-2{fill:#bed0ea;}.cls-3{fill:url(#linear-gradient);}.cls-4{fill:url(#linear-gradient-2);}</style><radialGradient id="radial-gradient" cx="81.02" cy="80.99" r="55.9" gradientUnits="userSpaceOnUse"><stop offset="0" stop-color="#15385e"/><stop offset="1" stop-color="#033e8c"/></radialGradient><linearGradient id="linear-gradient" x1="49.36" y1="23.36" x2="90.67" y2="94.9" gradientUnits="userSpaceOnUse"><stop offset="0.33" stop-color="#bed0ea"/><stop offset="0.42" stop-color="#bacde8"/><stop offset="0.52" stop-color="#aec3e2"/><stop offset="0.62" stop-color="#9ab4d8"/><stop offset="0.72" stop-color="#7d9eca"/><stop offset="0.82" stop-color="#5981b7"/><stop offset="0.92" stop-color="#2d5fa1"/><stop offset="1" stop-color="#033e8c"/></linearGradient><linearGradient id="linear-gradient-2" x1="184.3" y1="286.34" x2="225.61" y2="357.89" gradientTransform="translate(296.96 424.95) rotate(180)" xlink:href="#linear-gradient"/></defs><title>color</title><path class="cls-1" d="M136.92,136.89H28.83a3.73,3.73,0,0,1-3.72-3.72V25.08H133.2a3.73,3.73,0,0,1,3.72,3.72Z"/><path class="cls-2" d="M98,98H12.74A3.72,3.72,0,0,1,9,94.26V12.71A3.73,3.73,0,0,1,12.74,9H94.29A3.72,3.72,0,0,1,98,12.71Z"/><rect class="cls-3" x="43.04" y="27.01" width="54.97" height="66"/><rect class="cls-2" x="43.04" y="64.01" width="74.97" height="33.97"/><path class="cls-2" d="M64,64h85.27A3.72,3.72,0,0,1,153,67.74v81.55a3.71,3.71,0,0,1-3.72,3.72H67.71A3.72,3.72,0,0,1,64,149.29Z"/><rect class="cls-4" x="63.99" y="68.96" width="55" height="66"/><rect class="cls-2" x="44.02" y="64.01" width="74.97" height="33.97"/></svg>