<svg id="Layer_1" data-name="Layer 1" xmlns="http://www.w3.org/2000/svg" xmlns:xlink="http://www.w3.org/1999/xlink" viewBox="0 0 162 162"><defs><style>.cls-1{opacity:0.5;}.cls-2{fill:#fff;}.cls-3{fill:url(#radial-gradient);}.cls-4{fill:url(#linear-gradient);}</style><radialGradient id="radial-gradient" cx="81" cy="81" r="72" gradientUnits="userSpaceOnUse"><stop offset="0" stop-color="#ccc"/><stop offset="0.04" stop-color="#d3d3d3"/><stop offset="0.2" stop-color="#e7e7e7"/><stop offset="0.38" stop-color="#f4f4f4"/><stop offset="0.61" stop-color="#fdfdfd"/><stop offset="1" stop-color="#fff"/></radialGradient><linearGradient id="linear-gradient" x1="25.11" y1="81" x2="136.92" y2="81" gradientUnits="userSpaceOnUse"><stop offset="0" stop-color="#fff"/><stop offset="1" stop-color="#fff"/></linearGradient></defs><title>white</title><g class="cls-1"><path class="cls-2" d="M136.92,136.89H28.83a3.73,3.73,0,0,1-3.72-3.72V25.08H133.2a3.73,3.73,0,0,1,3.72,3.72Z"/></g><path class="cls-3" d="M149.26,64H98V12.71A3.72,3.72,0,0,0,94.29,9H12.74A3.71,3.71,0,0,0,9,12.71V94.26A3.72,3.72,0,0,0,12.74,98H64v51.31A3.72,3.72,0,0,0,67.71,153h81.55a3.71,3.71,0,0,0,3.72-3.72V67.74A3.72,3.72,0,0,0,149.26,64Z"/><rect class="cls-4" x="25.11" y="64.02" width="111.8" height="33.96"/></svg>