<?xml version="1.0" encoding="UTF-8"?>
<!-- Generator: Adobe Illustrator 19.1.0, SVG Export Plug-In . SVG Version: 6.00 Build 0)  -->
<svg version="1.1" id="Layer_1" xmlns="http://www.w3.org/2000/svg" xmlns:xlink="http://www.w3.org/1999/xlink" x="0px" y="0px" width="150px" height="24px" viewBox="0 0 150 24" enable-background="new 0 0 150 24" xml:space="preserve">
<g>
	<g>
		<path fill="#FFFFFF" d="M51.7,17.5l0.6-0.7c1.3,1.2,2.5,1.8,4.2,1.8c1.8,0,3-1,3-2.3v0c0-1.3-0.7-2-3.3-2.5c-2.8-0.6-4-1.5-4-3.3    v0c0-1.8,1.6-3.1,3.8-3.1c1.7,0,2.9,0.5,4.1,1.4l-0.6,0.7c-1.1-1-2.2-1.3-3.5-1.3c-1.7,0-2.9,1-2.9,2.2v0c0,1.3,0.6,2,3.4,2.6    c2.7,0.6,3.9,1.5,3.9,3.3v0c0,1.9-1.6,3.2-3.9,3.2C54.6,19.4,53.1,18.8,51.7,17.5z"/>
		<path fill="#FFFFFF" d="M63.3,7.4h0.9v7.8l7.5-7.8h1.2l-5.2,5.2l5.4,6.6H72l-4.9-6l-2.9,3v3h-0.9V7.4z"/>
		<path fill="#FFFFFF" d="M75.5,7.4h0.9v11.8h-0.9V7.4z"/>
		<path fill="#FFFFFF" d="M79.5,13.4L79.5,13.4c0-3.3,2.4-6.1,6-6.1c3.6,0,5.9,2.9,5.9,6.1v0c0,3.2-2.4,6.1-6,6.1    C81.8,19.5,79.5,16.6,79.5,13.4z M90.5,13.4L90.5,13.4c0-3-2.1-5.4-5.1-5.4c-2.9,0-5,2.4-5,5.3v0c0,2.9,2.1,5.3,5.1,5.3    C88.4,18.7,90.5,16.3,90.5,13.4z"/>
		<path fill="#FFFFFF" d="M95.4,7.4h2.2l3.6,5.6l3.6-5.6h2.2v11.8h-2.1v-8.5l-3.7,5.6h-0.1l-3.7-5.5v8.4h-2V7.4z"/>
		<path fill="#FFFFFF" d="M109.9,14.2V7.4h2.1v6.7c0,2.2,1.1,3.4,3,3.4c1.8,0,3-1.1,3-3.3V7.4h2.1v6.7c0,3.5-2,5.3-5.1,5.3    C111.8,19.5,109.9,17.7,109.9,14.2z"/>
		<path fill="#FFFFFF" d="M122,17.5l1.2-1.5c1.1,1,2.3,1.5,3.7,1.5c1.3,0,2.1-0.6,2.1-1.5v0c0-0.8-0.5-1.3-2.7-1.8    c-2.5-0.6-3.9-1.4-3.9-3.5v0c0-2,1.7-3.4,4-3.4c1.7,0,3.1,0.5,4.3,1.5l-1.1,1.6c-1.1-0.8-2.1-1.2-3.2-1.2c-1.2,0-1.9,0.6-1.9,1.4    v0c0,0.9,0.5,1.3,2.8,1.9c2.5,0.6,3.8,1.5,3.8,3.5v0c0,2.2-1.7,3.5-4.2,3.5C125.2,19.4,123.5,18.8,122,17.5z"/>
		<path fill="#FFFFFF" d="M133.8,7.4h2.1v11.8h-2.1V7.4z"/>
		<path fill="#FFFFFF" d="M138.5,13.4L138.5,13.4c0-3.4,2.5-6.1,6.1-6.1c2.2,0,3.5,0.8,4.6,1.8l-1.3,1.5c-0.9-0.9-2-1.5-3.3-1.5    c-2.2,0-3.9,1.9-3.9,4.2v0c0,2.3,1.6,4.2,3.9,4.2c1.5,0,2.4-0.6,3.4-1.5l1.3,1.4c-1.2,1.3-2.6,2.1-4.8,2.1    C141,19.5,138.5,16.8,138.5,13.4z"/>
	</g>
	<g>
		<path fill="#FFFFFF" d="M34,0c-4.9-0.4-9.3,2.2-11.5,6.2l0,0l-5.2,9.1l-3.1-1.6l-2.8,4.9c-3.7-0.3-6.4-3.5-6.1-7.2    c0.3-3.7,3.5-6.4,7.2-6.1c1.9,0.2,3.5,1.1,4.7,2.5L19.9,3C18,1.3,15.6,0.3,13,0C6.4-0.5,0.6,4.4,0,11C-0.5,17.6,4.4,23.4,11,24    c4.9,0.4,9.3-2.2,11.5-6.2c0,0,0,0,0,0l5.2-9.1l3.1,1.6l2.8-4.9c3.7,0.3,6.4,3.5,6.1,7.2c-0.3,3.7-3.5,6.4-7.2,6.1    c-1.9-0.2-3.5-1.1-4.6-2.5L25.1,21c1.9,1.6,4.3,2.7,6.9,2.9c6.6,0.5,12.4-4.4,12.9-11C45.5,6.4,40.6,0.6,34,0"/>
	</g>
</g>
</svg>